<svg id="visual" viewBox="0 0 960 300" width="960" height="300" xmlns="http://www.w3.org/2000/svg" xmlns:xlink="http://www.w3.org/1999/xlink" version="1.1"><rect x="0" y="0" width="960" height="300" fill="#79a2b0"></rect><path d="M0 148L22.8 146.7C45.7 145.3 91.3 142.7 137 130.2C182.7 117.7 228.3 95.3 274 82.2C319.7 69 365.3 65 411.2 70.3C457 75.7 503 90.3 548.8 89.5C594.7 88.7 640.3 72.3 686 71.2C731.7 70 777.3 84 823 86.8C868.7 89.7 914.3 81.3 937.2 77.2L960 73L960 301L937.2 301C914.3 301 868.7 301 823 301C777.3 301 731.7 301 686 301C640.3 301 594.7 301 548.8 301C503 301 457 301 411.2 301C365.3 301 319.7 301 274 301C228.3 301 182.7 301 137 301C91.3 301 45.7 301 22.8 301L0 301Z" fill="#d0e8f2"></path><path d="M0 80L22.8 93.2C45.7 106.3 91.3 132.7 137 138.3C182.7 144 228.3 129 274 121.2C319.7 113.3 365.3 112.7 411.2 115.5C457 118.3 503 124.7 548.8 124.8C594.7 125 640.3 119 686 119C731.7 119 777.3 125 823 128.3C868.7 131.7 914.3 132.3 937.2 132.7L960 133L960 301L937.2 301C914.3 301 868.7 301 823 301C777.3 301 731.7 301 686 301C640.3 301 594.7 301 548.8 301C503 301 457 301 411.2 301C365.3 301 319.7 301 274 301C228.3 301 182.7 301 137 301C91.3 301 45.7 301 22.8 301L0 301Z" fill="#b3d1df"></path><path d="M0 169L22.8 165.3C45.7 161.7 91.3 154.3 137 149.2C182.7 144 228.3 141 274 144.7C319.7 148.3 365.3 158.7 411.2 166.5C457 174.3 503 179.7 548.8 170C594.7 160.3 640.3 135.7 686 133.5C731.7 131.3 777.3 151.7 823 162.2C868.7 172.7 914.3 173.3 937.2 173.7L960 174L960 301L937.2 301C914.3 301 868.7 301 823 301C777.3 301 731.7 301 686 301C640.3 301 594.7 301 548.8 301C503 301 457 301 411.2 301C365.3 301 319.7 301 274 301C228.3 301 182.7 301 137 301C91.3 301 45.7 301 22.8 301L0 301Z" fill="#98b9cc"></path><path d="M0 145L22.8 154.8C45.7 164.7 91.3 184.3 137 187.7C182.7 191 228.3 178 274 169.5C319.7 161 365.3 157 411.2 162C457 167 503 181 548.8 182.3C594.7 183.7 640.3 172.3 686 171C731.7 169.7 777.3 178.3 823 175C868.7 171.7 914.3 156.3 937.2 148.7L960 141L960 301L937.2 301C914.3 301 868.7 301 823 301C777.3 301 731.7 301 686 301C640.3 301 594.7 301 548.8 301C503 301 457 301 411.2 301C365.3 301 319.7 301 274 301C228.3 301 182.7 301 137 301C91.3 301 45.7 301 22.8 301L0 301Z" fill="#7da2ba"></path><path d="M0 186L22.8 190.7C45.7 195.3 91.3 204.7 137 207.3C182.7 210 228.3 206 274 205.3C319.7 204.7 365.3 207.3 411.2 201.8C457 196.3 503 182.7 548.8 178.2C594.7 173.7 640.3 178.3 686 184.2C731.7 190 777.3 197 823 199.3C868.7 201.7 914.3 199.3 937.2 198.2L960 197L960 301L937.2 301C914.3 301 868.7 301 823 301C777.3 301 731.7 301 686 301C640.3 301 594.7 301 548.8 301C503 301 457 301 411.2 301C365.3 301 319.7 301 274 301C228.3 301 182.7 301 137 301C91.3 301 45.7 301 22.8 301L0 301Z" fill="#638ca8"></path><path d="M0 217L22.8 217.7C45.7 218.3 91.3 219.7 137 218.2C182.7 216.7 228.3 212.3 274 215.2C319.7 218 365.3 228 411.2 233.8C457 239.7 503 241.3 548.8 240.3C594.7 239.3 640.3 235.7 686 229.5C731.7 223.3 777.3 214.7 823 214.8C868.7 215 914.3 224 937.2 228.5L960 233L960 301L937.2 301C914.3 301 868.7 301 823 301C777.3 301 731.7 301 686 301C640.3 301 594.7 301 548.8 301C503 301 457 301 411.2 301C365.3 301 319.7 301 274 301C228.3 301 182.7 301 137 301C91.3 301 45.7 301 22.8 301L0 301Z" fill="#4a7697"></path><path d="M0 221L22.8 222.7C45.7 224.3 91.3 227.7 137 230.7C182.7 233.7 228.3 236.3 274 238.2C319.7 240 365.3 241 411.2 242.8C457 244.7 503 247.3 548.8 245.7C594.7 244 640.3 238 686 239C731.7 240 777.3 248 823 252.7C868.7 257.3 914.3 258.7 937.2 259.3L960 260L960 301L937.2 301C914.3 301 868.7 301 823 301C777.3 301 731.7 301 686 301C640.3 301 594.7 301 548.8 301C503 301 457 301 411.2 301C365.3 301 319.7 301 274 301C228.3 301 182.7 301 137 301C91.3 301 45.7 301 22.8 301L0 301Z" fill="#2f6186"></path><path d="M0 279L22.8 275.5C45.7 272 91.3 265 137 262.5C182.7 260 228.3 262 274 261.2C319.7 260.3 365.3 256.7 411.2 256.3C457 256 503 259 548.8 259C594.7 259 640.3 256 686 258.3C731.7 260.7 777.3 268.3 823 272.3C868.7 276.3 914.3 276.7 937.2 276.8L960 277L960 301L937.2 301C914.3 301 868.7 301 823 301C777.3 301 731.7 301 686 301C640.3 301 594.7 301 548.8 301C503 301 457 301 411.2 301C365.3 301 319.7 301 274 301C228.3 301 182.7 301 137 301C91.3 301 45.7 301 22.8 301L0 301Z" fill="#0f4c75"></path></svg>