<svg id="visual" viewBox="0 0 960 300" width="960" height="300" xmlns="http://www.w3.org/2000/svg" xmlns:xlink="http://www.w3.org/1999/xlink" version="1.1"><rect x="0" y="0" width="960" height="300" fill="#79a2b0"></rect><path d="M0 150L22.8 151.3C45.7 152.7 91.3 155.3 137 167.8C182.7 180.3 228.3 202.7 274 215.8C319.7 229 365.3 233 411.2 227.7C457 222.3 503 207.7 548.8 208.5C594.7 209.3 640.3 225.7 686 226.8C731.7 228 777.3 214 823 211.2C868.7 208.3 914.3 216.7 937.2 220.8L960 225L960 0L937.2 0C914.3 0 868.7 0 823 0C777.3 0 731.7 0 686 0C640.3 0 594.7 0 548.8 0C503 0 457 0 411.2 0C365.3 0 319.7 0 274 0C228.3 0 182.7 0 137 0C91.3 0 45.7 0 22.8 0L0 0Z" fill="#d0e8f2"></path><path d="M0 218L22.8 204.8C45.7 191.7 91.3 165.3 137 159.7C182.7 154 228.3 169 274 176.8C319.7 184.7 365.3 185.3 411.2 182.5C457 179.7 503 173.3 548.8 173.2C594.7 173 640.3 179 686 179C731.7 179 777.3 173 823 169.7C868.7 166.3 914.3 165.7 937.2 165.3L960 165L960 0L937.2 0C914.3 0 868.7 0 823 0C777.3 0 731.7 0 686 0C640.3 0 594.7 0 548.8 0C503 0 457 0 411.2 0C365.3 0 319.7 0 274 0C228.3 0 182.7 0 137 0C91.3 0 45.7 0 22.8 0L0 0Z" fill="#b3d1df"></path><path d="M0 129L22.8 132.7C45.7 136.3 91.3 143.7 137 148.8C182.7 154 228.3 157 274 153.3C319.7 149.7 365.3 139.3 411.2 131.5C457 123.7 503 118.3 548.8 128C594.7 137.7 640.3 162.3 686 164.5C731.7 166.7 777.3 146.3 823 135.8C868.7 125.3 914.3 124.7 937.2 124.3L960 124L960 0L937.2 0C914.3 0 868.7 0 823 0C777.3 0 731.7 0 686 0C640.3 0 594.7 0 548.8 0C503 0 457 0 411.2 0C365.3 0 319.7 0 274 0C228.3 0 182.7 0 137 0C91.3 0 45.7 0 22.8 0L0 0Z" fill="#98b9cc"></path><path d="M0 153L22.8 143.2C45.7 133.3 91.3 113.7 137 110.3C182.7 107 228.3 120 274 128.5C319.7 137 365.3 141 411.2 136C457 131 503 117 548.8 115.7C594.7 114.3 640.3 125.7 686 127C731.7 128.3 777.3 119.7 823 123C868.7 126.3 914.3 141.7 937.2 149.3L960 157L960 0L937.2 0C914.3 0 868.7 0 823 0C777.3 0 731.7 0 686 0C640.3 0 594.7 0 548.8 0C503 0 457 0 411.2 0C365.3 0 319.7 0 274 0C228.3 0 182.7 0 137 0C91.3 0 45.7 0 22.8 0L0 0Z" fill="#7da2ba"></path><path d="M0 112L22.8 107.3C45.7 102.7 91.3 93.3 137 90.7C182.7 88 228.3 92 274 92.7C319.7 93.3 365.3 90.7 411.2 96.2C457 101.7 503 115.3 548.8 119.8C594.7 124.3 640.3 119.7 686 113.8C731.7 108 777.3 101 823 98.7C868.7 96.3 914.3 98.7 937.2 99.8L960 101L960 0L937.2 0C914.3 0 868.7 0 823 0C777.3 0 731.7 0 686 0C640.3 0 594.7 0 548.8 0C503 0 457 0 411.2 0C365.3 0 319.7 0 274 0C228.3 0 182.7 0 137 0C91.3 0 45.7 0 22.8 0L0 0Z" fill="#638ca8"></path><path d="M0 81L22.8 80.3C45.7 79.7 91.3 78.3 137 79.8C182.7 81.3 228.3 85.7 274 82.8C319.7 80 365.3 70 411.2 64.2C457 58.3 503 56.7 548.8 57.7C594.7 58.7 640.3 62.3 686 68.5C731.7 74.7 777.3 83.3 823 83.2C868.7 83 914.3 74 937.2 69.5L960 65L960 0L937.2 0C914.3 0 868.7 0 823 0C777.3 0 731.7 0 686 0C640.3 0 594.7 0 548.8 0C503 0 457 0 411.2 0C365.3 0 319.7 0 274 0C228.3 0 182.7 0 137 0C91.3 0 45.7 0 22.8 0L0 0Z" fill="#4a7697"></path><path d="M0 77L22.8 75.3C45.7 73.7 91.3 70.3 137 67.3C182.7 64.3 228.3 61.7 274 59.8C319.7 58 365.3 57 411.2 55.2C457 53.3 503 50.7 548.8 52.3C594.7 54 640.3 60 686 59C731.7 58 777.3 50 823 45.3C868.7 40.7 914.3 39.3 937.2 38.7L960 38L960 0L937.2 0C914.3 0 868.7 0 823 0C777.3 0 731.7 0 686 0C640.3 0 594.7 0 548.8 0C503 0 457 0 411.2 0C365.3 0 319.7 0 274 0C228.3 0 182.7 0 137 0C91.3 0 45.7 0 22.8 0L0 0Z" fill="#2f6186"></path><path d="M0 19L22.8 22.5C45.7 26 91.3 33 137 35.5C182.7 38 228.3 36 274 36.8C319.7 37.7 365.3 41.3 411.2 41.7C457 42 503 39 548.8 39C594.7 39 640.3 42 686 39.7C731.7 37.3 777.3 29.7 823 25.7C868.7 21.7 914.3 21.3 937.2 21.2L960 21L960 0L937.2 0C914.3 0 868.7 0 823 0C777.3 0 731.7 0 686 0C640.3 0 594.7 0 548.8 0C503 0 457 0 411.2 0C365.3 0 319.7 0 274 0C228.3 0 182.7 0 137 0C91.3 0 45.7 0 22.8 0L0 0Z" fill="#0f4c75"></path></svg>